<svg width="35" height="35" fill="none" xmlns="http://www.w3.org/2000/svg"><g clip-path="url(#clip0_14_64)" fill="#84BE51"><path d="M16.625 8.75a.875.875 0 100 1.75.875.875 0 000-1.75zm5.25 0a.875.875 0 100 1.75.875.875 0 000-1.75zM14 25.667h1.167v1.166H14v-1.166zm9.334 0H24.5v1.166h-1.166v-1.166zM14 33.25c0 .155.062.303.17.412l1.168 1.167c.109.11.257.171.412.171h7a.583.583 0 00.412-.17l1.167-1.168a.579.579 0 00.171-.412v-4.667a.583.583 0 00-.583-.583h-9.334a.583.583 0 00-.583.583v4.667zm1.167-4.083h8.166v3.841l-.824.825H15.99l-.824-.825v-3.841z"/><path d="M5.25 26.25h-.583a.583.583 0 00-.584.583v5.834c0 .322.261.583.584.583h.583V35h1.167v-1.75h1.166V35H8.75v-.04a4.661 4.661 0 002.916-1.55V35h1.167V24.5h12.833V35h1.167v-4.083h2.917V35h1.166v-4.083h.584a.583.583 0 00.583-.584V28a.583.583 0 00-.583-.583h-.584v-5.25A4.672 4.672 0 0026.25 17.5h-2.917v-.512a5.84 5.84 0 001.72-3.571h.03a2.329 2.329 0 002.227-1.676 2.917 2.917 0 00-1.643-5.324h-.584V3.779c0-1.575-.478-2.66-1.463-3.317A2.743 2.743 0 0022.093 0h-.436c-.544 0-1.075.16-1.527.462a1.583 1.583 0 01-1.76 0A2.743 2.743 0 0016.843 0h-.436c-.544 0-1.075.16-1.527.462-.985.657-1.464 1.742-1.464 3.317v2.638h-.583a2.888 2.888 0 00-1.75.598V3.4A3.378 3.378 0 0112.08.994l-.825-.823A4.536 4.536 0 009.917 3.4v4.766A1.75 1.75 0 018.75 9.809V3.4A3.378 3.378 0 019.746.996L8.92.17A4.536 4.536 0 007.583 3.4v6.516H6.417V3.4A3.378 3.378 0 017.412.996L6.587.17A4.536 4.536 0 005.25 3.4v6.408a1.75 1.75 0 01-1.167-1.642V3.4A3.378 3.378 0 015.08.996L4.254.17A4.536 4.536 0 002.917 3.4v4.766a2.922 2.922 0 002.333 2.858V26.25zm1.167-12.833h1.166V26.25H6.417V13.417zm3.5 15.166h1.75v1.167h-1.75v-1.167zm1.75-4.666v3.5H9.808a1.748 1.748 0 00-1.06-1.06v-4.19a3.504 3.504 0 012.917-3.448v5.198zm-5.834 8.166H5.25v-4.666h2.917c.322 0 .583.26.583.583v3.5a.583.583 0 01-.583.583H5.833zM8.75 33.78v-.637A1.75 1.75 0 009.917 31.5v-.583h1.701A3.506 3.506 0 018.75 33.78zm4.083-10.447v-4.666H14v4.666h-1.167zm2.508-4.666a4.086 4.086 0 001.226 1.901l1.654 2.765h-3.055v-4.666h.175zm3.909 1.75a2.92 2.92 0 01-2.917-2.917v-2.333a2.917 2.917 0 015.834 0V17.5a2.92 2.92 0 01-2.917 2.917zm.748 1.095l-.748 1.265-.758-1.268a4.016 4.016 0 001.506.003zm10.918 8.238h-4.083v-1.167h4.084v1.167zm-1.166-7.583v5.25h-2.917v-8.698a3.504 3.504 0 012.917 3.448zm-4.084-3.5v4.666H24.5v-4.666h1.166zm-2.333 0v4.666h-3.059l1.614-2.722a4.089 4.089 0 001.273-1.944h.172zm-.004-3.577a4.08 4.08 0 00-8.159 0 4.667 4.667 0 01-.587-2.257v-5.25h9.333v5.25a4.667 4.667 0 01-.587 2.257zm1.754-2.84V9.917a1.167 1.167 0 010 2.333zm.584-4.667a1.75 1.75 0 011.549 2.562 2.333 2.333 0 00-2.133-1.395V7.583h.584zm-10.14-6.15a1.58 1.58 0 01.88-.266h.436c.313 0 .62.092.88.266.924.618 2.13.618 3.054 0a1.58 1.58 0 01.88-.266h.436c.313 0 .62.092.88.266.405.27.944.807.944 2.346v.304h-9.334V3.78c0-1.54.54-2.076.944-2.346zm-.944 3.817h9.333v1.167h-9.333V5.25zm-1.75 2.333h.583V8.75a2.333 2.333 0 00-2.127 1.387 1.735 1.735 0 011.544-2.554zm-.583 3.5c0-.644.522-1.166 1.166-1.166v2.333a1.167 1.167 0 01-1.166-1.167zm-2.15-.75a2.923 2.923 0 001.087 1.4 2.328 2.328 0 002.23 1.684h.03a5.839 5.839 0 001.72 3.57v.513H12.25a4.65 4.65 0 00-3.5 1.59v-8.065c.503-.107.97-.345 1.35-.692zM7.583 12.25H6.417v-1.167h1.166v1.167z"/><path d="M18.498 13.592l-.83.816a2.031 2.031 0 003.163 0l-.83-.816a.897.897 0 01-1.503 0z"/></g><defs><clipPath id="clip0_14_64"><path fill="#fff" d="M0 0h35v35H0z"/></clipPath></defs></svg>