<svg width="35" height="35" fill="none" xmlns="http://www.w3.org/2000/svg"><path d="M27.19 30.797h-.1a.578.578 0 101.157 0h0a2.193 2.193 0 00-2.19-2.19h0a.578.578 0 000 1.157 1.035 1.035 0 011.033 1.033h.1zm0 0a1.135 1.135 0 00-1.133-1.133.478.478 0 110-.957 2.093 2.093 0 012.09 2.09.478.478 0 11-.957 0zm-3.918-4.441h0l-1.155 2.212h.1s0 0 0 0a1.056 1.056 0 011.055-1.055.579.579 0 000-1.157zm-5.622-8.817v0a.578.578 0 00-.58-.579h0a3.874 3.874 0 00-2.726 1.125v-.574a3.875 3.875 0 00-.17-5.304.579.579 0 00-.817 0h0a3.885 3.885 0 00-.17 5.304v.574a3.871 3.871 0 00-2.726-1.125h0a.578.578 0 00-.579.579h0a3.886 3.886 0 003.305 3.836v1.01a.579.579 0 101.157 0v-1.01a3.886 3.886 0 003.305-3.836zm-4.222-5.262a3.784 3.784 0 00-.14 5.196l.14-5.196zm-.05 2.676c0-.496.134-.981.388-1.405a2.731 2.731 0 010 2.81 2.733 2.733 0 01-.389-1.405zm1.765 3.964c.351-.351.79-.6 1.269-.72a2.734 2.734 0 01-1.987 1.988c.12-.48.368-.918.718-1.268zm-2.755 0c.35.35.598.79.719 1.268a2.733 2.733 0 01-1.987-1.986c.48.12.918.368 1.268.718z" fill="#84BE51" stroke="#84BE51" stroke-width=".2"/><path d="M6.305 17.5v0a7.461 7.461 0 107.46-7.46h0a7.469 7.469 0 00-7.46 7.46zm7.46-6.304A6.304 6.304 0 117.463 17.5a6.311 6.311 0 016.304-6.304z" fill="#84BE51" stroke="#84BE51" stroke-width=".2"/><mask id="a" maskUnits="userSpaceOnUse" x=".246" y=".246" width="34" height="34" fill="#000"><path fill="#fff" d="M.246.246h34v34h-34z"/><path d="M31.9 30.598a3.087 3.087 0 00-2.325-2.748v-.072a3.07 3.07 0 00-2.83-3.056 3.033 3.033 0 00-.09-.315c.299-2.253.458-4.522.478-6.795v-.224c0-5.749-1.352-12.258-1.483-12.874v-2.79a.479.479 0 00-.478-.478H3.207a.478.478 0 00-.478.479v2.789c-.131.617-1.483 7.126-1.483 12.874v.224c0 5.748 1.352 12.258 1.483 12.874v2.789a.478.478 0 00.478.478h30.069a.48.48 0 00.478-.478 2.841 2.841 0 00-1.854-2.677zM3.686 2.203h21.007v1.883H3.686V2.203zM2.203 17.388c0-5.109 1.09-10.846 1.395-12.345h21.184c.303 1.499 1.395 7.236 1.395 12.345v.224a51.322 51.322 0 01-.333 5.497 3.316 3.316 0 00-5.55 1.613 3.07 3.07 0 00-2.827 3.057v.072a3.094 3.094 0 00-2.203 2.105H3.597c-.304-1.498-1.395-7.235-1.395-12.344l.001-.224zm1.483 13.526h10.847a2.833 2.833 0 00-1.205 1.883H3.686v-1.883zm15.869 1.883a1.292 1.292 0 011.198-.814.478.478 0 100-.957 2.253 2.253 0 00-2.197 1.77h-4.252a1.89 1.89 0 011.42-1.374.479.479 0 00.372-.49l-.003-.053c0-.018-.003-.036-.003-.053a2.118 2.118 0 011.937-2.1.48.48 0 00.432-.564 2.111 2.111 0 012.072-2.492c.033 0 .065.002.097.005l.04.002a.478.478 0 00.507-.432 2.355 2.355 0 014.687 0 .477.477 0 00.508.432l.036-.002a2.1 2.1 0 012.176 2.487.48.48 0 00.432.564 2.118 2.118 0 011.937 2.1c0 .017 0 .034-.003.052l-.003.054a.479.479 0 00.372.49 1.89 1.89 0 011.42 1.376l-13.182-.001z"/></mask><path d="M31.9 30.598a3.087 3.087 0 00-2.325-2.748v-.072a3.07 3.07 0 00-2.83-3.056 3.033 3.033 0 00-.09-.315c.299-2.253.458-4.522.478-6.795v-.224c0-5.749-1.352-12.258-1.483-12.874v-2.79a.479.479 0 00-.478-.478H3.207a.478.478 0 00-.478.479v2.789c-.131.617-1.483 7.126-1.483 12.874v.224c0 5.748 1.352 12.258 1.483 12.874v2.789a.478.478 0 00.478.478h30.069a.48.48 0 00.478-.478 2.841 2.841 0 00-1.854-2.677zM3.686 2.203h21.007v1.883H3.686V2.203zM2.203 17.388c0-5.109 1.09-10.846 1.395-12.345h21.184c.303 1.499 1.395 7.236 1.395 12.345v.224a51.322 51.322 0 01-.333 5.497 3.316 3.316 0 00-5.55 1.613 3.07 3.07 0 00-2.827 3.057v.072a3.094 3.094 0 00-2.203 2.105H3.597c-.304-1.498-1.395-7.235-1.395-12.344l.001-.224zm1.483 13.526h10.847a2.833 2.833 0 00-1.205 1.883H3.686v-1.883zm15.869 1.883a1.292 1.292 0 011.198-.814.478.478 0 100-.957 2.253 2.253 0 00-2.197 1.77h-4.252a1.89 1.89 0 011.42-1.374.479.479 0 00.372-.49l-.003-.053c0-.018-.003-.036-.003-.053a2.118 2.118 0 011.937-2.1.48.48 0 00.432-.564 2.111 2.111 0 012.072-2.492c.033 0 .065.002.097.005l.04.002a.478.478 0 00.507-.432 2.355 2.355 0 014.687 0 .477.477 0 00.508.432l.036-.002a2.1 2.1 0 012.176 2.487.48.48 0 00.432.564 2.118 2.118 0 011.937 2.1c0 .017 0 .034-.003.052l-.003.054a.479.479 0 00.372.49 1.89 1.89 0 011.42 1.376l-13.182-.001z" fill="#84BE51"/><path d="M31.9 30.598a3.087 3.087 0 00-2.325-2.748v-.072a3.07 3.07 0 00-2.83-3.056 3.033 3.033 0 00-.09-.315c.299-2.253.458-4.522.478-6.795v-.224c0-5.749-1.352-12.258-1.483-12.874v-2.79a.479.479 0 00-.478-.478H3.207a.478.478 0 00-.478.479v2.789c-.131.617-1.483 7.126-1.483 12.874v.224c0 5.748 1.352 12.258 1.483 12.874v2.789a.478.478 0 00.478.478h30.069a.48.48 0 00.478-.478 2.841 2.841 0 00-1.854-2.677zM3.686 2.203h21.007v1.883H3.686V2.203zM2.203 17.388c0-5.109 1.09-10.846 1.395-12.345h21.184c.303 1.499 1.395 7.236 1.395 12.345v.224a51.322 51.322 0 01-.333 5.497 3.316 3.316 0 00-5.55 1.613 3.07 3.07 0 00-2.827 3.057v.072a3.094 3.094 0 00-2.203 2.105H3.597c-.304-1.498-1.395-7.235-1.395-12.344l.001-.224zm1.483 13.526h10.847a2.833 2.833 0 00-1.205 1.883H3.686v-1.883zm15.869 1.883a1.292 1.292 0 011.198-.814.478.478 0 100-.957 2.253 2.253 0 00-2.197 1.77h-4.252a1.89 1.89 0 011.42-1.374.479.479 0 00.372-.49l-.003-.053c0-.018-.003-.036-.003-.053a2.118 2.118 0 011.937-2.1.48.48 0 00.432-.564 2.111 2.111 0 012.072-2.492c.033 0 .065.002.097.005l.04.002a.478.478 0 00.507-.432 2.355 2.355 0 014.687 0 .477.477 0 00.508.432l.036-.002a2.1 2.1 0 012.176 2.487.48.48 0 00.432.564 2.118 2.118 0 011.937 2.1c0 .017 0 .034-.003.052l-.003.054a.479.479 0 00.372.49 1.89 1.89 0 011.42 1.376l-13.182-.001z" stroke="#84BE51" stroke-width=".4" mask="url(#a)"/><path d="M5.59 7.455h3.98a.579.579 0 100-1.157H5.59a.579.579 0 100 1.157zm5.9 0h1.088a.578.578 0 100-1.157H11.49a.578.578 0 000 1.157z" fill="#84BE51" stroke="#84BE51" stroke-width=".2"/></svg>