<svg width="34" height="24" fill="none" xmlns="http://www.w3.org/2000/svg"><rect x=".5" y=".5" width="33" height="23" rx="3.5" fill="#fff" stroke="#D9D9D9"/><g clip-path="url(#clip0_48_2709)" fill="#84C551"><path d="M22.988 9.373a.57.57 0 00-.217-.384l-3.673-2.867a.577.577 0 00-.808.098l-3.559 4.537-2.361 1.581-.652.437-.455.304a.572.572 0 00-.158.798v.001l.551.822.191.284 1.112 1.658.185.275.556.829a.575.575 0 00.798.157l1.082-.724.477.373a.573.573 0 00.808-.1l1.874-2.388 2.732-1.829.01-.006 1.107-.741a.573.573 0 00.159-.799h-.001l-.627-.935.75-.956a.572.572 0 00.119-.425zm-10.432 4.376c-.07.35-.252.659-.52.886l-.559-.832-.08-.12a.222.222 0 01.061-.311l.316-.212.637-.426c.162.311.214.666.145 1.015zm1.747 3.861a.225.225 0 01-.311-.06l-.008-.012-.63-.938a1.562 1.562 0 011.905.37l-.956.64zm2.285-.374a.225.225 0 01-.315.038l-.386-.301 1.91-1.28-1.209 1.543zm4.707-5.418c.07-.35.252-.659.52-.886l.64.952a.222.222 0 01-.063.31l-.953.639a1.542 1.542 0 01-.144-1.015zm1.298-2.237l-.68.866-1.762-2.626a.577.577 0 00-.799-.157l-1.557 1.042c-.19.127.006.419.195.292l.308-.206a1.907 1.907 0 002.395.468l.925 1.38c-.345.28-.58.668-.668 1.11a1.89 1.89 0 00.196 1.28l-2.628 1.758-2.966 1.986a1.913 1.913 0 00-2.394-.467l-.926-1.38a1.89 1.89 0 00.669-1.11c.087-.441.017-.89-.196-1.28l4.469-2.992c.188-.126-.007-.418-.196-.292l-1.306.874 2.895-3.69a.225.225 0 01.314-.038l3.674 2.867a.222.222 0 01.038.315zm-3.045-1.624a.225.225 0 01.311.06l.322.48.315.47a1.562 1.562 0 01-1.904-.37l.956-.64z"/><path d="M15.64 10.867a2.288 2.288 0 00-.98 1.47 2.29 2.29 0 00.347 1.73c.345.514.87.862 1.477.98.216.043.286-.302.067-.345-.515-.1-.96-.395-1.252-.83a1.94 1.94 0 01-.294-1.467c.1-.513.396-.955.83-1.246.897-.6 2.116-.36 2.717.536.29.433.395.954.294 1.467a1.956 1.956 0 01-1.383 1.502c-.219.063-.122.4.096.338a2.308 2.308 0 001.285-3.503 2.314 2.314 0 00-3.205-.632zm3.963.3c.033 0 .067-.01.097-.03l.828-.554a.176.176 0 00-.196-.292l-.827.554a.176.176 0 00.098.322zM14.15 14.43l-.827.553a.176.176 0 00.196.293l.827-.554a.176.176 0 10-.195-.292z"/><path d="M17.55 14.055c.132.197.414-.013.291-.196l-.095-.141a.794.794 0 00.147-.879c-.19-.422-.582-.456-.98-.363l-.398-.594a.46.46 0 01.186-.023c.223.032.275-.313.052-.348a.84.84 0 00-.439.072l-.077-.115c-.127-.189-.419.007-.292.196l.084.126a.682.682 0 00-.13.731c.156.363.504.406.854.347l.513.765a.634.634 0 01-.337.074c-.222.003-.213.355.004.352a.97.97 0 00.53-.133l.086.129zm-1.142-1.512c-.073-.006-.146-.068-.185-.16a.323.323 0 01.012-.287l.299.445a.88.88 0 01-.126.002zm.726.24a.354.354 0 01.439.2.45.45 0 01-.032.43l-.419-.626a.561.561 0 00.012-.003z"/></g><defs><clipPath id="clip0_48_2709"><path fill="#fff" transform="translate(11 6)" d="M0 0h12v12H0z"/></clipPath></defs></svg>