<svg width="16" height="16" fill="none" xmlns="http://www.w3.org/2000/svg"><path d="M12.197 14.546l-2.193-3.87a.218.218 0 11.378-.215l2.194 3.87-.379.215zM7.168 5.455a.221.221 0 01-.19-.111L4.786 1.478l.378-.218 2.194 3.869a.215.215 0 01-.082.29.239.239 0 01-.107.036z" fill="#E74E13"/><path d="M10.054 15.197a3.83 3.83 0 01-.957-.105c-3.127-.864-7.235-8.11-6.37-11.235a5.236 5.236 0 012.14-2.676A7.47 7.47 0 015.45.873a.785.785 0 011.01.328l1.643 2.91a.783.783 0 01-.366 1.108c-.16.07-.317.142-.469.221-.66.332-1.038.631-1.125.893-.201.623.037 1.676.608 2.682.57 1.007 1.338 1.746 1.98 1.883.19.043.582 0 1.345-.504.145-.09.29-.189.433-.29a.785.785 0 011.138.252l1.646 2.91a.785.785 0 01-.236 1.038 8.05 8.05 0 01-.564.34 5.238 5.238 0 01-2.438.553zM5.772 1.233a.35.35 0 00-.14.032c-.18.085-.363.184-.544.291a4.83 4.83 0 00-1.943 2.415c-.366 1.33.277 3.741 1.638 6.141 1.361 2.4 3.101 4.192 4.43 4.562 1.042.2 2.12.052 3.07-.42.186-.101.363-.209.53-.32a.35.35 0 00.1-.46l-1.646-2.908a.352.352 0 00-.378-.171.36.36 0 00-.14.06c-.148.105-.29.207-.447.291-.74.477-1.272.655-1.676.564-.771-.174-1.618-.957-2.263-2.094-.504-.873-.934-2.141-.643-3.031.125-.387.552-.754 1.34-1.164a9.18 9.18 0 01.49-.23.36.36 0 00.211-.36.355.355 0 00-.046-.143L6.07 1.378a.352.352 0 00-.297-.142v-.003z" fill="#E74E13"/></svg>